<?xml version="1.0" encoding="UTF-8"?>
<svg id="Ebene_2" data-name="Ebene 2" xmlns="http://www.w3.org/2000/svg" viewBox="0 0 437.67 474.43">
  <defs>
    <style>
      .cls-1 {
        letter-spacing: .09em;
      }

      .cls-2 {
        letter-spacing: .04em;
      }

      .cls-3 {
        font-size: 44px;
      }

      .cls-3, .cls-4 {
        fill: #fff;
      }

      .cls-3, .cls-5 {
        font-family: PosteramaText-Bold, 'Posterama Text';
        font-weight: 700;
      }

      .cls-6 {
        fill: #f17f6e;
      }

      .cls-7, .cls-5 {
        fill: #ce5648;
      }

      .cls-8 {
        letter-spacing: .06em;
      }

      .cls-9 {
        letter-spacing: .06em;
      }

      .cls-10 {
        letter-spacing: .07em;
      }

      .cls-5 {
        font-size: 29px;
      }

      .cls-11 {
        letter-spacing: .07em;
      }

      .cls-12 {
        letter-spacing: .07em;
      }

      .cls-13 {
        letter-spacing: .07em;
      }

      .cls-14 {
        letter-spacing: .05em;
      }

      .cls-15 {
        letter-spacing: .07em;
      }

      .cls-16 {
        letter-spacing: .06em;
      }

      .cls-17 {
        letter-spacing: .07em;
      }

      .cls-18 {
        letter-spacing: .07em;
      }

      .cls-19 {
        letter-spacing: .07em;
      }

      .cls-20 {
        letter-spacing: .06em;
      }

      .cls-21 {
        letter-spacing: .07em;
      }

      .cls-22 {
        letter-spacing: .07em;
      }

      .cls-23 {
        letter-spacing: .06em;
      }

      .cls-24 {
        letter-spacing: .08em;
      }

      .cls-25 {
        letter-spacing: .08em;
      }

      .cls-26 {
        letter-spacing: .07em;
      }
    </style>
  </defs>
  <g id="_Layer_" data-name="&amp;lt;Layer&amp;gt;">
    <g id="Badge">
      <path class="cls-4" d="m401.73,271.55V72.13L218.84,14.73,35.92,72.13v201.63c0,85.53,102.75,172.5,182.92,185.95,78.31-13.13,182.94-98.92,182.94-185.95,0-1.44-.05-2.2-.05-2.2Z"/>
      <path class="cls-7" d="m414.87,275.27V61.52L218.84,0,22.78,61.52v216.12c0,11.95,3.25,67.47,60.51,123.81,64.65,63.61,135.55,72.99,135.55,72.99,0,0,70.9-9.38,135.55-72.99,57.26-56.34,60.53-111.86,60.53-123.81,0-1.54-.05-2.36-.05-2.36Zm-72.59,111.49c-58.87,57.92-123.44,66.47-123.44,66.47,0,0-64.57-8.54-123.44-66.47-52.14-51.3-55.13-101.86-55.13-112.75,0-1.4.05-2.15.05-2.15V77.22L218.84,21.2l178.53,56.02v196.8c0,10.88-2.95,61.45-55.1,112.75Z"/>
      <path class="cls-7" d="m385.05,267.97V86.73l-166.21-52.16L52.6,86.73v183.24c0,77.73,93.38,156.77,166.24,168.99,71.17-11.94,166.26-89.9,166.26-168.99,0-1.31-.05-2-.05-2Zm-166.21,162.83c-70.05-11.75-159.86-87.75-159.86-162.49,0-1.26.04-1.92.04-1.92V92.12l159.82-50.15,159.83,50.15v176.19c0,76.05-91.41,151.01-159.84,162.49Z"/>
      <g>
        <rect class="cls-6" x="3.54" y="174.05" width="430.6" height="107.65"/>
        <path class="cls-7" d="m437.67,285.24H0v-114.73h437.67v114.73Zm-430.6-7.08h423.52v-100.57H7.08v100.57Z"/>
      </g>
      <text class="cls-3" transform="translate(18.48 242.6)"><tspan class="cls-15" x="0" y="0">C</tspan><tspan class="cls-8" x="34.18" y="0">Y</tspan><tspan class="cls-11" x="66.3" y="0">B</tspan><tspan class="cls-12" x="99.51" y="0">E</tspan><tspan class="cls-10" x="128.87" y="0">R</tspan><tspan class="cls-21" x="162.33" y="0">S</tspan><tspan class="cls-9" x="191.78" y="0">E</tspan><tspan class="cls-14" x="220.62" y="0">C</tspan><tspan class="cls-16" x="254.27" y="0">U</tspan><tspan class="cls-22" x="291.12" y="0">R</tspan><tspan class="cls-2" x="324.44" y="0">I</tspan><tspan class="cls-1" x="340.67" y="0">T</tspan><tspan class="cls-19" x="371.08" y="0">Y</tspan></text>
      <g>
        <path class="cls-4" d="m221.1,262.71l9.27,10.17c.81.89,2.06,1.22,3.2.86l13.11-4.18c1.72-.55,3.54.5,3.93,2.27l2.94,13.44c.26,1.17,1.17,2.08,2.34,2.34l13.44,2.94c1.76.39,2.82,2.21,2.27,3.93l-4.18,13.11c-.36,1.14-.03,2.39.86,3.2l10.17,9.27c1.34,1.22,1.34,3.32,0,4.53l-10.17,9.27c-.89.81-1.22,2.06-.86,3.2l4.18,13.11c.55,1.72-.5,3.54-2.27,3.93l-13.44,2.94c-1.17.26-2.08,1.17-2.34,2.34l-2.94,13.44c-.39,1.76-2.21,2.81-3.93,2.27l-13.11-4.18c-1.14-.36-2.39-.03-3.2.86l-9.27,10.17c-1.22,1.34-3.32,1.34-4.53,0l-9.27-10.17c-.81-.89-2.06-1.22-3.2-.86l-13.11,4.18c-1.72.55-3.54-.5-3.93-2.27l-2.94-13.44c-.26-1.17-1.17-2.08-2.34-2.34l-13.44-2.94c-1.76-.39-2.81-2.21-2.27-3.93l4.18-13.11c.36-1.14.03-2.39-.86-3.2l-10.17-9.27c-1.34-1.22-1.34-3.32,0-4.53l10.17-9.27c.89-.81,1.22-2.06.86-3.2l-4.18-13.11c-.55-1.72.5-3.54,2.27-3.93l13.44-2.94c1.17-.26,2.08-1.17,2.34-2.34l2.94-13.44c.39-1.76,2.21-2.82,3.93-2.27l13.11,4.18c1.14.36,2.39.03,3.2-.86l9.27-10.17c1.22-1.33,3.32-1.33,4.53,0Z"/>
        <path class="cls-7" d="m220.85,269.26l8.25,9.05c.72.79,1.83,1.09,2.85.76l11.67-3.72c1.53-.49,3.15.45,3.49,2.02l2.62,11.97c.23,1.04,1.04,1.86,2.08,2.08l11.97,2.62c1.57.34,2.51,1.96,2.02,3.49l-3.72,11.67c-.32,1.02-.03,2.13.76,2.85l9.05,8.25c1.19,1.08,1.19,2.95,0,4.04l-9.05,8.25c-.79.72-1.09,1.83-.76,2.85l3.72,11.67c.49,1.53-.45,3.15-2.02,3.49l-11.97,2.62c-1.04.23-1.86,1.04-2.08,2.08l-2.62,11.97c-.34,1.57-1.96,2.51-3.49,2.02l-11.67-3.72c-1.02-.32-2.13-.03-2.85.76l-8.25,9.05c-1.08,1.19-2.95,1.19-4.04,0l-8.25-9.05c-.72-.79-1.83-1.09-2.85-.76l-11.67,3.72c-1.53.49-3.15-.45-3.49-2.02l-2.62-11.97c-.23-1.04-1.04-1.86-2.08-2.08l-11.97-2.62c-1.57-.34-2.51-1.96-2.02-3.49l3.72-11.67c.32-1.02.03-2.13-.76-2.85l-9.05-8.25c-1.19-1.08-1.19-2.95,0-4.04l9.05-8.25c.79-.72,1.09-1.83.76-2.85l-3.72-11.67c-.49-1.53.45-3.15,2.02-3.49l11.97-2.62c1.04-.23,1.86-1.04,2.08-2.08l2.62-11.97c.34-1.57,1.96-2.51,3.49-2.02l11.67,3.72c1.02.32,2.13.03,2.85-.76l8.25-9.05c1.08-1.19,2.95-1.19,4.04,0Z"/>
        <path class="cls-4" d="m246.52,301.53c0-.69-.43-.89-.89-.89-1.41,0-17.94,9.5-36.32,30.92-7.68-7.01-15.67-11.23-17.27-11.23-.49,0-.89.4-.89.89,0,.37.14.48.63,1.05,9.33,10.64,12.82,21.44,12.84,21.74h10.54c12.47-22.62,21.5-32.03,30.57-41.22.86-.87.79-1.26.79-1.26Z"/>
      </g>
      <text class="cls-5" transform="translate(130.23 135.77)"><tspan class="cls-17" x="0" y="0">D</tspan><tspan class="cls-25" x="24.24" y="0">E</tspan><tspan class="cls-26" x="43.7" y="0">F</tspan><tspan class="cls-24" x="62.58" y="0">EN</tspan><tspan class="cls-13" x="106.3" y="0">S</tspan><tspan class="cls-23" x="125.83" y="0">I</tspan><tspan class="cls-20" x="136.96" y="0">V</tspan><tspan class="cls-18" x="160.01" y="0">E</tspan></text>
    </g>
  </g>
</svg>