<?xml version="1.0" encoding="UTF-8" standalone="no"?>
<!DOCTYPE svg PUBLIC "-//W3C//DTD SVG 1.1//EN" "http://www.w3.org/Graphics/SVG/1.1/DTD/svg11.dtd">
<svg width="100%" height="100%" viewBox="0 0 438 475" version="1.1" xmlns="http://www.w3.org/2000/svg" xmlns:xlink="http://www.w3.org/1999/xlink" xml:space="preserve" xmlns:serif="http://www.serif.com/" style="fill-rule:evenodd;clip-rule:evenodd;stroke-linejoin:round;stroke-miterlimit:2;">
    <g transform="matrix(1,0,0,1,-1777.56,-1465.6)">
        <g transform="matrix(1,0,0,1,2179.29,1668.48)">
            <path d="M0,68.676L0,-130.751L-182.89,-188.149L-365.808,-130.751L-365.808,70.88C-365.808,156.409 -263.058,243.381 -182.891,256.825C-104.581,243.692 0.051,157.905 0.051,70.88C0.051,69.44 0,68.676 0,68.676" style="fill:white;fill-rule:nonzero;"/>
        </g>
        <g transform="matrix(1,0,0,1,2119.84,1553.27)">
            <path d="M0,299.104C-58.87,357.026 -123.435,365.57 -123.435,365.57C-123.435,365.57 -188.003,357.026 -246.873,299.104C-299.018,247.804 -302.001,197.242 -302.001,186.358C-302.001,184.956 -301.95,184.209 -301.95,184.209L-301.95,-10.445L-123.435,-66.466L55.1,-10.445L55.1,186.358C55.1,197.242 52.148,247.804 0,299.104M72.593,187.61L72.593,-26.143L-123.435,-87.664L-319.493,-26.143L-319.493,189.972C-319.493,201.923 -316.246,257.443 -258.987,313.778C-194.34,377.384 -123.435,386.768 -123.435,386.768C-123.435,386.768 -52.534,377.384 12.114,313.778C69.376,257.443 72.647,201.923 72.647,189.972C72.647,188.428 72.593,187.61 72.593,187.61" style="fill:rgb(206,86,72);fill-rule:nonzero;"/>
        </g>
        <g transform="matrix(1,0,0,1,1996.4,1508.32)">
            <path d="M0,388.078C-70.053,376.329 -159.858,300.331 -159.858,225.593C-159.858,224.335 -159.814,223.668 -159.814,223.668L-159.814,49.404L0.002,-0.75L159.836,49.404L159.836,225.593C159.836,301.638 68.431,376.6 0,388.078M166.211,225.245L166.211,44.007L0.002,-8.158L-166.236,44.007L-166.236,227.247C-166.236,304.978 -72.856,384.017 0,396.236C71.169,384.301 166.258,306.337 166.258,227.247C166.258,225.939 166.211,225.245 166.211,225.245" style="fill:rgb(206,86,72);fill-rule:nonzero;"/>
        </g>
        <g transform="matrix(-1,0,0,1,3992.8,1262.96)">
            <rect x="1781.1" y="376.695" width="430.597" height="107.65" style="fill:rgb(241,127,110);"/>
        </g>
        <g transform="matrix(1,0,0,1,0,1262.96)">
            <path d="M1784.64,480.806L2208.16,480.806L2208.16,380.235L1784.64,380.235L1784.64,480.806ZM2215.24,487.883L1777.56,487.883L1777.56,373.157L2215.24,373.157L2215.24,487.883Z" style="fill:rgb(206,86,72);fill-rule:nonzero;"/>
        </g>
        <g transform="matrix(1,0,0,1,1998.67,1847.54)">
            <path d="M0,-119.228L9.268,-109.056C10.074,-108.17 11.323,-107.836 12.465,-108.199L25.577,-112.375C27.298,-112.923 29.117,-111.872 29.503,-110.108L32.443,-96.665C32.699,-95.494 33.613,-94.58 34.784,-94.324L48.227,-91.384C49.991,-90.998 51.042,-89.179 50.494,-87.458L46.318,-74.346C45.954,-73.204 46.289,-71.956 47.175,-71.149L57.346,-61.881C58.682,-60.665 58.682,-58.564 57.346,-57.347L47.175,-48.08C46.289,-47.273 45.954,-46.024 46.318,-44.883L50.494,-31.771C51.042,-30.05 49.991,-28.23 48.227,-27.845L34.784,-24.905C33.613,-24.648 32.699,-23.734 32.443,-22.564L29.503,-9.121C29.117,-7.356 27.298,-6.306 25.577,-6.854L12.465,-11.03C11.323,-11.393 10.074,-11.058 9.268,-10.173L0,-0.001C-1.216,1.335 -3.317,1.335 -4.534,-0.001L-13.801,-10.173C-14.608,-11.058 -15.857,-11.393 -16.999,-11.03L-30.11,-6.854C-31.831,-6.306 -33.651,-7.356 -34.037,-9.121L-36.976,-22.564C-37.233,-23.734 -38.147,-24.648 -39.317,-24.905L-52.76,-27.845C-54.524,-28.23 -55.575,-30.05 -55.027,-31.771L-50.852,-44.883C-50.488,-46.024 -50.823,-47.273 -51.709,-48.08L-61.88,-57.347C-63.215,-58.564 -63.215,-60.665 -61.88,-61.881L-51.709,-71.149C-50.823,-71.956 -50.488,-73.204 -50.852,-74.346L-55.027,-87.458C-55.575,-89.179 -54.524,-90.998 -52.76,-91.384L-39.317,-94.324C-38.147,-94.58 -37.233,-95.494 -36.976,-96.665L-34.037,-110.108C-33.651,-111.872 -31.831,-112.923 -30.11,-112.375L-16.999,-108.199C-15.857,-107.836 -14.608,-108.17 -13.801,-109.056L-4.534,-119.228C-3.317,-120.563 -1.216,-120.563 0,-119.228" style="fill:white;fill-rule:nonzero;"/>
        </g>
        <g transform="matrix(1,0,0,1,1998.42,1840.99)">
            <path d="M0,-106.124L8.249,-97.07C8.968,-96.282 10.079,-95.984 11.095,-96.307L22.766,-100.024C24.298,-100.512 25.918,-99.577 26.261,-98.007L28.878,-86.04C29.106,-84.999 29.92,-84.185 30.961,-83.957L42.927,-81.34C44.498,-80.997 45.433,-79.377 44.945,-77.846L41.228,-66.174C40.905,-65.158 41.203,-64.047 41.991,-63.329L51.045,-55.079C52.233,-53.997 52.233,-52.127 51.045,-51.044L41.991,-42.795C41.203,-42.077 40.905,-40.965 41.228,-39.949L44.945,-28.278C45.433,-26.746 44.498,-25.127 42.927,-24.783L30.961,-22.166C29.92,-21.938 29.106,-21.124 28.878,-20.083L26.261,-8.117C25.918,-6.547 24.298,-5.612 22.766,-6.099L11.095,-9.816C10.079,-10.14 8.968,-9.842 8.249,-9.054L0,0.001C-1.083,1.189 -2.952,1.189 -4.035,0.001L-12.284,-9.054C-13.003,-9.842 -14.114,-10.14 -15.13,-9.816L-26.802,-6.099C-28.333,-5.612 -29.953,-6.547 -30.296,-8.117L-32.913,-20.083C-33.141,-21.124 -33.955,-21.938 -34.996,-22.166L-46.962,-24.783C-48.533,-25.127 -49.468,-26.746 -48.98,-28.278L-45.263,-39.949C-44.94,-40.965 -45.238,-42.077 -46.026,-42.795L-55.08,-51.044C-56.269,-52.127 -56.269,-53.997 -55.08,-55.079L-46.026,-63.329C-45.238,-64.047 -44.94,-65.158 -45.263,-66.174L-48.98,-77.846C-49.468,-79.377 -48.533,-80.997 -46.962,-81.34L-34.996,-83.957C-33.955,-84.185 -33.141,-84.999 -32.913,-86.04L-30.296,-98.007C-29.953,-99.577 -28.333,-100.512 -26.802,-100.024L-15.13,-96.307C-14.114,-95.984 -13.003,-96.282 -12.284,-97.07L-4.035,-106.124C-2.952,-107.313 -1.083,-107.313 0,-106.124" style="fill:rgb(206,86,72);fill-rule:nonzero;"/>
        </g>
        <g transform="matrix(1,0,0,1,2024.08,1808.72)">
            <path d="M0,-41.587C0,-42.281 -0.429,-42.479 -0.891,-42.478C-2.298,-42.477 -18.827,-32.978 -37.207,-11.557C-44.891,-18.571 -52.878,-22.789 -54.477,-22.789C-54.97,-22.789 -55.368,-22.39 -55.368,-21.898C-55.368,-21.526 -55.233,-21.413 -54.743,-20.845C-45.417,-10.205 -41.921,0.594 -41.905,0.892L-31.361,0.892C-18.891,-21.733 -9.861,-31.142 -0.792,-40.33C0.065,-41.198 0,-41.587 0,-41.587" style="fill:white;fill-rule:nonzero;"/>
        </g>
        <g transform="matrix(44,0,0,44,2196.7,1708.2)">
        </g>
        <text x="1796.04px" y="1708.2px" style="font-family:'PosteramaText-Bold', 'Posterama Text', sans-serif;font-weight:700;font-size:44px;fill:white;">C<tspan x="1830.23px 1862.34px 1895.54px 1924.91px 1958.37px 1987.81px 2016.64px 2050.29px 2087.24px 2120.45px 2136.77px 2167.08px " y="1708.2px 1708.2px 1708.2px 1708.2px 1708.2px 1708.2px 1708.2px 1708.2px 1708.2px 1708.2px 1708.2px 1708.2px ">YBERSECURITY</tspan></text>
        <g transform="matrix(1,0,0,1,-21.3818,-16.0879)">
            <text x="1910.71px" y="1601.37px" style="font-family:'PosteramaText-Bold', 'Posterama Text', sans-serif;font-weight:700;font-size:29px;fill:rgb(206,86,72);">A<tspan x="1933.41px 1957.83px 1977.28px 2003.15px 2030.06px 2055.92px 2075.38px 2086.77px 2110.05px " y="1601.37px 1601.37px 1601.37px 1601.37px 1601.37px 1601.37px 1601.37px 1601.37px 1601.37px ">UTOMOTIVE</tspan></text>
            <g transform="matrix(29,0,0,29,2102.38,1630.37)">
            </g>
            <text x="1937.33px" y="1630.37px" style="font-family:'PosteramaText-Bold', 'Posterama Text', sans-serif;font-weight:700;font-size:29px;fill:rgb(206,86,72);">I<tspan x="1948.72px 1972.76px 1997px 2021.19px 2041.02px 2060.47px 2082.86px " y="1630.37px 1630.37px 1630.37px 1630.37px 1630.37px 1630.37px 1630.37px ">NDUSTRY</tspan></text>
        </g>
    </g>
</svg>
